<?xml version="1.0" encoding="iso-8859-1"?>
<!-- Generator: Adobe Illustrator 19.0.0, SVG Export Plug-In . SVG Version: 6.00 Build 0)  -->
<svg version="1.1" id="Capa_1" xmlns="http://www.w3.org/2000/svg" xmlns:xlink="http://www.w3.org/1999/xlink" x="0px" y="0px"
	 viewBox="0 0 512.001 512.001" style="enable-background:new 0 0 512.001 512.001;" xml:space="preserve">
<path style="fill:#38C96C;" d="M499.509,479.837H251.438v-95.93h248.071c2.759,0,4.996,2.237,4.996,4.996v85.937
	C504.505,477.6,502.269,479.837,499.509,479.837z"/>
<path style="fill:#2BAA55;" d="M499.509,479.837H433.87v-95.93h65.639c2.759,0,4.996,2.237,4.996,4.996v85.937
	C504.505,477.6,502.269,479.837,499.509,479.837z"/>
<g>
	<path style="fill:#38C96C;" d="M499.509,362.59H251.438v-95.93h248.071c2.759,0,4.996,2.237,4.996,4.996v85.937
		C504.505,360.353,502.269,362.59,499.509,362.59z"/>
	<path style="fill:#38C96C;" d="M499.509,245.342H251.438v-95.93h248.071c2.759,0,4.996,2.237,4.996,4.996v85.937
		C504.505,243.105,502.269,245.342,499.509,245.342z"/>
</g>
<path style="fill:#F16645;" d="M251.438,32.165H12.491c-2.759,0-4.996,2.237-4.996,4.996v85.937c0,2.759,2.237,4.996,4.996,4.996
	h238.947l42.653-44.508c1.852-1.933,1.852-4.981,0-6.914L251.438,32.165z"/>
<path style="fill:#38C96C;" d="M499.509,128.094H251.438v-95.93h248.071c2.759,0,4.996,2.237,4.996,4.996v85.937
	C504.505,125.858,502.269,128.094,499.509,128.094z"/>
<g>
	<path style="fill:#2BAA55;" d="M499.509,128.094H433.87v-95.93h65.639c2.759,0,4.996,2.237,4.996,4.996v85.937
		C504.505,125.858,502.269,128.094,499.509,128.094z"/>
	<path style="fill:#2BAA55;" d="M499.509,245.008H433.87v-95.93h65.639c2.759,0,4.996,2.237,4.996,4.996v85.937
		C504.505,242.771,502.269,245.008,499.509,245.008z"/>
	<path style="fill:#2BAA55;" d="M499.509,362.59H433.87v-95.93h65.639c2.759,0,4.996,2.237,4.996,4.996v85.937
		C504.505,360.353,502.269,362.59,499.509,362.59z"/>
</g>
<path style="fill:#44C1DD;" d="M297.215,149.411H12.491c-2.759,0-4.996,2.237-4.996,4.996v85.937c0,2.759,2.237,4.996,4.996,4.996
	h284.725l42.653-44.508c1.852-1.933,1.852-4.981,0-6.914L297.215,149.411z"/>
<path style="fill:#37B0C4;" d="M339.87,200.842l-42.65,44.5h-87.09l42.66-44.5c1.85-1.94,1.85-4.99,0-6.92l-42.66-44.51h87.09
	l42.65,44.51C341.72,195.852,341.72,198.902,339.87,200.842z"/>
<path style="fill:#FFE1A0;" d="M337.684,266.66H12.491c-2.759,0-4.996,2.237-4.996,4.996v85.937c0,2.759,2.237,4.996,4.996,4.996
	h325.193l42.653-44.508c1.852-1.933,1.852-4.981,0-6.914L337.684,266.66z"/>
<path style="fill:#EFCC86;" d="M380.339,318.09l-42.65,44.5h-87.09l42.66-44.5c1.85-1.94,1.85-4.99,0-6.92l-42.66-44.51h87.09
	l42.65,44.51C382.189,313.1,382.189,316.15,380.339,318.09z"/>
<path style="fill:#F16645;" d="M372.5,383.907H12.491c-2.759,0-4.996,2.237-4.996,4.996v85.937c0,2.759,2.237,4.996,4.996,4.996
	H372.5l42.653-44.508c1.852-1.933,1.852-4.981,0-6.914L372.5,383.907z"/>
<g>
	<path style="fill:#EB5836;" d="M415.155,435.337l-42.65,44.5h-87.09l42.66-44.5c1.85-1.94,1.85-4.99,0-6.92l-42.66-44.51h87.09
		l42.65,44.51C417.005,430.347,417.005,433.397,415.155,435.337z"/>
	<path style="fill:#EB5836;" d="M294.09,83.59l-42.65,44.5h-87.09l42.66-44.5c1.85-1.94,1.85-4.99,0-6.92l-42.66-44.51h87.09
		l42.65,44.51C295.94,78.601,295.94,81.651,294.09,83.59z"/>
</g>
<path d="M499.509,24.67h-88.956c-4.139,0-7.495,3.355-7.495,7.495s3.355,7.495,7.495,7.495h86.458v80.941h-228.01l30.502-31.828
	c4.644-4.847,4.644-12.439,0-17.285L269.001,39.66h87.926c4.139,0,7.495-3.355,7.495-7.495s-3.355-7.495-7.495-7.495H251.438
	c-0.313,0-0.619,0.025-0.921,0.062c-0.401-0.04-0.805-0.062-1.211-0.062H12.491C5.603,24.67,0,30.274,0,37.161v85.937
	c0,6.888,5.603,12.491,12.491,12.491h236.815c0.406,0,0.81-0.023,1.211-0.062c0.302,0.037,0.609,0.062,0.921,0.062h248.071
	c6.888,0,12.491-5.603,12.491-12.491V37.161C512,30.274,506.397,24.67,499.509,24.67z M14.989,39.659H248.24l38.784,40.47
	l-38.784,40.47H14.989V39.659z"/>
<path d="M499.509,141.918H295.083h-43.645H12.491C5.603,141.918,0,147.521,0,154.409v85.937c0,6.888,5.603,12.491,12.491,12.491
	H92.87c4.139,0,7.495-3.355,7.495-7.495s-3.355-7.495-7.495-7.495H14.99v-80.941h236.449h42.579l38.784,40.47l-38.784,40.47h-42.579
	H146.081c-4.139,0-7.495,3.355-7.495,7.495s3.355,7.495,7.495,7.495h105.358h43.645H499.51c6.888,0,12.491-5.603,12.491-12.491
	v-85.937C512,147.521,506.397,141.918,499.509,141.918z M497.011,237.848H314.778l30.502-31.828c4.645-4.847,4.645-12.44,0-17.285
	l-30.502-31.828h182.233L497.011,237.848L497.011,237.848z"/>
<path d="M499.509,259.165H335.552h-84.113H12.491C5.603,259.165,0,264.769,0,271.656v85.937c0,6.888,5.603,12.491,12.491,12.491
	h238.948h84.113H499.51c6.888,0,12.491-5.603,12.491-12.491v-85.937C512,264.769,506.397,259.165,499.509,259.165z M251.438,355.095
	H14.989v-80.941h236.449h83.047l38.784,40.47l-38.784,40.47h-83.047V355.095z M497.011,355.095H355.246l30.501-31.827
	c4.646-4.846,4.646-12.439,0.001-17.286l-30.502-31.828h141.765V355.095z"/>
<path d="M499.509,376.413H370.368h-118.93H12.491C5.603,376.413,0,382.016,0,388.904v85.937c0,6.888,5.603,12.491,12.491,12.491
	h238.948h118.93H499.51c6.888,0,12.491-5.603,12.491-12.491v-85.937C512,382.016,506.397,376.413,499.509,376.413z M251.438,472.343
	H14.989v-80.941h236.449h117.863l38.784,40.47l-38.784,40.47H251.438V472.343z M497.011,472.343H390.063l30.502-31.828
	c4.644-4.847,4.644-12.439,0-17.285l-30.502-31.828h106.948V472.343z"/>
<g>
</g>
<g>
</g>
<g>
</g>
<g>
</g>
<g>
</g>
<g>
</g>
<g>
</g>
<g>
</g>
<g>
</g>
<g>
</g>
<g>
</g>
<g>
</g>
<g>
</g>
<g>
</g>
<g>
</g>
</svg>
